<?xml version="1.0" encoding="UTF-8"?>
<svg width="187px" height="186px" viewBox="0 0 187 186" version="1.1" xmlns="http://www.w3.org/2000/svg" xmlns:xlink="http://www.w3.org/1999/xlink">
    <!-- Generator: Sketch 43.2 (39069) - http://www.bohemiancoding.com/sketch -->
    <title>bank-building (1)</title>
    <desc>Created with Sketch.</desc>
    <defs></defs>
    <g id="Landing-Page" stroke="none" stroke-width="1" fill="none" fill-rule="evenodd">
        <g id="Landing" transform="translate(-138.000000, -1344.000000)" fill-rule="nonzero">
            <g id="bank-building-(1)" transform="translate(138.000000, 1344.000000)">
                <path d="M177.511458,169.054213 L8.455,169.054213 C3.78416667,169.054213 0,172.837532 0,177.511277 C0,182.177106 3.78416667,185.960426 8.455,185.960426 L177.5075,185.960426 C182.178333,185.960426 185.9625,182.177106 185.9625,177.511277 C185.958542,172.837532 182.174375,169.054213 177.511458,169.054213 Z" id="Shape" fill="#F5A623"></path>
                <path d="M19.0197917,147.078511 C14.3489583,147.078511 10.5647917,150.86183 10.5647917,155.531617 C10.5647917,160.201404 14.3489583,163.988681 19.0197917,163.988681 L166.942708,163.988681 C171.613542,163.988681 175.397708,160.201404 175.397708,155.531617 C175.397708,150.86183 171.613542,147.078511 166.942708,147.078511 L164.832917,147.078511 L164.832917,71.016383 L166.942708,71.016383 C169.282083,71.016383 171.16625,69.1247234 171.16625,66.7937872 C171.16625,64.4628511 169.274167,62.5711915 166.942708,62.5711915 L19.0197917,62.5711915 C16.684375,62.5711915 14.79625,64.4628511 14.79625,66.7937872 C14.79625,69.1247234 16.6883333,71.016383 19.0197917,71.016383 L21.1335417,71.016383 L21.1335417,147.074553 L19.0197917,147.074553 L19.0197917,147.078511 Z M147.922917,71.016383 L147.922917,147.074553 L122.565833,147.074553 L122.565833,71.016383 L147.922917,71.016383 Z M105.655833,71.016383 L105.655833,147.074553 L80.29875,147.074553 L80.29875,71.016383 L105.655833,71.016383 Z M38.035625,71.016383 L63.3927083,71.016383 L63.3927083,147.074553 L38.035625,147.074553 L38.035625,71.016383 Z" id="Shape" fill="#21CD98"></path>
                <path d="M8.455,54.9728936 L177.5075,54.9728936 L177.590625,54.9728936 C182.265417,54.9728936 186.045625,51.1895745 186.045625,46.5197872 C186.045625,42.8077021 183.654792,39.6615319 180.33375,38.5217872 L96.4566667,0.787531915 C94.251875,-0.201829787 91.7304167,-0.201829787 89.5216667,0.787531915 L4.9875,38.8146383 C1.34979167,40.4530213 -0.649166667,44.4025532 0.19,48.2966809 C1.02520833,52.1908085 4.46895833,54.9728936 8.455,54.9728936 Z" id="Shape" fill="#F5A623"></path>
            </g>
        </g>
    </g>
</svg>