<?xml version="1.0" encoding="UTF-8"?>
<svg width="28px" height="33px" viewBox="0 0 28 33" version="1.1" xmlns="http://www.w3.org/2000/svg" xmlns:xlink="http://www.w3.org/1999/xlink">
    <!-- Generator: Sketch 43.2 (39069) - http://www.bohemiancoding.com/sketch -->
    <title>Shape</title>
    <desc>Created with Sketch.</desc>
    <defs></defs>
    <g id="Wait-List-Page" stroke="none" stroke-width="1" fill="none" fill-rule="evenodd">
        <g id="Desktop-Portrait" transform="translate(-17.000000, -16.000000)" fill-rule="nonzero" fill="#21CE99">
            <g id="logo" transform="translate(17.000000, 16.000000)">
                <path d="M25.5569693,17.8735552 C24.106093,16.4842735 22.1839178,15.7192179 20.1443833,15.7192179 C20.1442549,15.7192179 20.1444475,15.7192179 20.1443191,15.7192179 C19.0243343,15.7192179 17.9397883,15.9504748 16.9491041,16.3886899 C16.6534589,15.1857415 16.1189221,14.0345487 15.5281454,12.913971 L16.0793744,12.913971 C20.2168661,12.913971 23.5830482,9.53464244 23.5830482,5.38084812 C23.5830482,4.78652818 23.1030822,4.3046785 22.5110856,4.3046785 L20.3671605,4.3046785 C17.2612489,4.3046785 14.5901059,6.20887418 13.4511176,8.91550814 C13.1407704,8.17939188 12.9126646,7.45171894 12.8260575,6.72359483 C12.6206146,4.99735353 13.2707772,3.44468381 14.8720763,1.83710025 C15.2907304,1.41686751 15.2907304,0.735471736 14.8720763,0.31517455 C14.4534864,-0.105058183 13.7747544,-0.105058183 13.3561002,0.31517455 C12.4777034,1.19708321 11.8160488,2.0963297 11.3659363,3.02238858 C9.99601728,1.18857544 7.81357159,8.58684766e-16 5.35981286,8.58684766e-16 L3.21588772,8.58684766e-16 C2.62389114,8.58684766e-16 2.14392514,0.48184968 2.14392514,1.07616962 C2.14392514,5.22996395 5.51004298,8.60929254 9.64759894,8.60929254 L11.0552039,8.60929254 C11.5017854,10.0361502 12.2495976,11.3933344 12.9796261,12.7176476 C13.9156754,14.4155296 14.7997861,16.0200195 15.0032387,17.6257339 C14.9110462,17.7060422 14.8204588,17.7886063 14.7316689,17.8736196 L14.7317331,17.8736196 C14.28849,18.2980418 13.5395864,18.2980418 13.0963434,17.8736196 C11.645467,16.484338 9.72329182,15.7192823 7.68375735,15.7192823 C7.68362895,15.7192823 7.68382155,15.7192823 7.68369315,15.7192823 C5.64428708,15.7192823 3.72191928,16.4844024 2.27123555,17.8736196 C0.806620216,19.2760497 0,21.1417026 0,23.1267222 C0,25.1118062 0.806620216,26.9775235 2.27117134,28.380018 C5.38356719,31.3602545 9.51284124,33.0000645 13.9032846,33 L13.9485462,33 C18.3348807,32.9887207 22.4574778,31.3480084 25.5570335,28.3799536 C27.0215846,26.9773302 27.8282049,25.1116773 27.8281407,23.1265933 C27.8281407,21.1415737 27.0215204,19.2760497 25.5569693,17.8735552 Z M17.5653686,27.0271783 C16.4093028,27.4978776 15.1880732,27.7364822 13.9354492,27.7364822 C12.6828253,27.7364822 11.4615956,27.4978776 10.3055299,27.0271783 C9.75693309,26.8038491 9.49255375,26.1762715 9.7150099,25.6254572 C9.93746605,25.0747074 10.5625903,24.8092905 11.1112513,25.0326197 C12.010064,25.3985831 12.9603016,25.5842074 13.9354492,25.5842074 C14.9105968,25.5842074 15.8607703,25.3985831 16.7596472,25.0326197 C17.3084366,24.8092905 17.9334324,25.074643 18.1558886,25.6254572 C18.3783447,26.1763359 18.1139012,26.8038491 17.5653686,27.0271783 Z" id="Shape"></path>
            </g>
        </g>
    </g>
</svg>