<?xml version="1.0" encoding="UTF-8"?>
<svg width="187px" height="187px" viewBox="0 0 187 187" version="1.1" xmlns="http://www.w3.org/2000/svg" xmlns:xlink="http://www.w3.org/1999/xlink">
    <!-- Generator: Sketch 43.2 (39069) - http://www.bohemiancoding.com/sketch -->
    <title>beans</title>
    <desc>Created with Sketch.</desc>
    <defs></defs>
    <g id="Wait-List-Page" stroke="none" stroke-width="1" fill="none" fill-rule="evenodd">
        <g id="Desktop-Portrait" transform="translate(-580.000000, -447.000000)" fill-rule="nonzero">
            <g id="beans" transform="translate(580.000000, 447.000000)">
                <path d="M177.631132,61.3024574 C170.833305,56.0899372 160.733209,52.7759283 148.922859,48.3176973 C140.994646,60.5708094 124.079951,64.6910987 110.050758,56.9217937 C96.1083565,49.200287 90.4954215,32.7245807 96.7200897,19.4073296 C86.6602444,11.7508117 78.504361,4.9580157 70.4818094,1.96182287 C61.8756166,-1.25197758 54.114278,0.121591928 46.7537735,6.16177578 C39.6754462,11.970935 36.5056704,21.3268049 37.5878386,33.2180762 C38.6595247,44.9936256 43.8502422,58.33813 52.2031883,70.7937556 C59.9427242,82.3336682 69.5543565,91.9377534 80.22887,98.8563341 C103.554814,99.0902937 121.416249,93.4236906 137.0123,93.4236906 C149.150529,93.4236906 159.734478,97.1481771 167.241731,106.418513 C177.095289,101.767413 185.281361,94.3633027 186.660381,83.6435067 L186.660381,83.643926 C187.875462,74.1995874 184.922036,66.8919126 177.631132,61.3024574 Z" id="XMLID_71_" fill="#FFFFFF"></path>
                <path d="M116.14461,45.9181435 C123.540753,50.0141143 132.037513,48.5583655 136.811883,43.4665987 C131.941078,41.365574 126.870276,38.9563767 121.639726,36.0612309 C121.632179,36.0570381 121.625052,36.0515874 121.617085,36.0473946 C121.609538,36.0432018 121.601152,36.0398475 121.593186,36.0356547 C116.360121,33.1367354 111.624744,30.1149664 107.257498,27.0994865 C105.474709,33.8465807 108.747628,41.8217534 116.14461,45.9181435 Z" id="XMLID_223_" fill="#F6A623"></path>
                <path d="M98.5259395,110.574442 C93.2471726,111.096029 87.6438812,111.445291 81.6653318,111.446549 C81.6556883,111.446549 81.6464641,111.445291 81.6368206,111.445291 C81.6271771,111.445291 81.6179529,111.446549 81.6083094,111.446549 C75.6297601,111.445291 70.0264686,111.096448 64.7477018,110.574442 C66.511204,117.527404 73.4113363,122.731538 81.6368206,122.731538 C89.8623049,122.731538 96.7624372,117.526984 98.5259395,110.574442 Z" id="XMLID_333_" fill="#F6A623"></path>
                <path d="M137.011881,106.002166 C129.737749,106.002166 121.313944,107.515357 111.472545,108.950561 C110.447818,123.647251 97.4618004,135.310013 81.6368206,135.310013 C65.8118408,135.310013 52.8258229,123.647251 51.8010964,108.950561 C41.9450224,107.51326 33.5333767,106.002166 26.2634372,106.002166 C14.3004686,106.002166 6.07372646,110.4822 1.67251794,121.570964 C-1.70522197,130.08198 0.054926009,139.802206 6.76260762,149.680502 C13.4048812,159.462783 24.4106278,168.622009 37.7526166,175.470989 C51.9977399,182.783695 67.1728318,186.649061 81.6372399,186.649061 C96.101648,186.649061 111.27674,182.783695 125.521863,175.470989 C138.863852,168.622009 149.869599,159.462783 156.511872,149.680502 C163.219554,139.802206 164.979283,130.08198 161.601962,121.570964 C157.205785,110.496036 148.991202,106.002166 137.011881,106.002166 Z" id="XMLID_341_" fill="#FFFFFF"></path>
            </g>
        </g>
    </g>
</svg>