<?xml version="1.0" encoding="UTF-8"?>
<svg width="87px" height="138px" viewBox="0 0 87 138" version="1.1" xmlns="http://www.w3.org/2000/svg" xmlns:xlink="http://www.w3.org/1999/xlink">
    <!-- Generator: Sketch 43.2 (39069) - http://www.bohemiancoding.com/sketch -->
    <title>payment-method</title>
    <desc>Created with Sketch.</desc>
    <defs></defs>
    <g id="Wait-List-Page" stroke="none" stroke-width="1" fill="none" fill-rule="evenodd" opacity="0.05">
        <g id="Desktop-Portrait" transform="translate(-68.000000, -135.000000)" fill-rule="nonzero" fill="#000000">
            <g id="payment-method" transform="translate(68.000000, 135.000000)">
                <path d="M83.4572922,76.7730612 C81.9037208,75.5620408 65.6900844,57.6220408 61.3118377,55.0873469 L61.3118377,8.53346939 C61.3118377,3.80204082 57.4702792,0 52.7530714,0 L8.65988961,0 C3.91443506,0 0.101123377,3.83020408 0.101123377,8.53346939 L0.101123377,90.0379592 C0.101123377,94.7693878 3.94268182,98.5714286 8.65988961,98.5714286 L22.811513,98.5714286 L27.8676818,98.5714286 L27.0767727,91.8685714 C26.8225519,91.6432653 26.6530714,91.502449 26.3988506,91.2771429 L23.5741753,91.2771429 L17.9248247,91.2771429 C18.2072922,90.1506122 18.2920325,88.9114286 18.0660584,87.6440816 C17.4446299,84.1236735 14.6482013,81.2791837 11.1173571,80.6314286 C9.81800649,80.3779592 8.5469026,80.462449 7.38878571,80.7440816 L7.38878571,17.2922449 C7.89722727,17.3767347 8.43391558,17.4330612 8.9706039,17.4330612 C13.7725519,17.4330612 17.6423571,13.5465306 17.6423571,8.78693878 C17.6423571,8.28 17.5858636,7.77306122 17.5011234,7.26612245 L43.8270974,7.26612245 C43.7423571,7.77306122 43.6858636,8.28 43.6858636,8.78693878 C43.6858636,13.5746939 47.5556688,17.4330612 52.3576169,17.4330612 C52.8943052,17.4330612 53.4309935,17.3767347 53.9394351,17.2922449 L53.9394351,79.2232653 L53.9394351,79.2232653 L53.9394351,97.022449 C50.9452792,94.8257143 47.6121623,87.9538776 47.6121623,87.9538776 C47.6121623,87.9538776 45.9738506,69.6759184 36.6806688,69.6759184 C36.4264481,69.6759184 36.200474,69.6759184 35.9462532,69.7040816 C35.9462532,69.7040816 28.9128117,70.2955102 34.7316429,90.3477551 L37.3303442,112.624898 C37.3303442,112.624898 40.2397597,124.706939 48.2618377,133.071429 L48.2618377,135.549796 C48.2618377,136.873469 49.3352143,137.971837 50.6910584,137.971837 L76.8193052,137.971837 C78.0621623,137.971837 79.0790455,137.042449 79.2202792,135.831429 C80.1524221,127.157143 83.7680065,94.9102041 85.886513,90.0097959 C86.225474,89.2212245 86.5079416,88.4326531 86.6209286,87.5877551 C87.1011234,84.8277551 87.2706039,79.7583673 83.4572922,76.7730612 Z" id="Shape"></path>
                <ellipse id="Oval" cx="31.6527468" cy="22.615102" rx="5.1974026" ry="5.18204082"></ellipse>
                <path d="M11.936513,49.8771429 C11.936513,58.804898 18.2072922,66.2681633 26.5965779,68.155102 C26.8507987,67.6763265 27.1050195,67.2538776 27.4157338,66.8032653 C30.1839156,62.7759184 33.9407338,62.0436735 35.2118377,61.9310204 C35.7202792,61.8746939 36.2287208,61.8465306 36.7371623,61.8465306 C38.5449545,61.8465306 41.0024221,62.1844898 43.5446299,63.5363265 C47.188461,60.1285714 49.4764481,55.2563265 49.4764481,49.8771429 C49.4764481,39.5412245 41.0589156,31.1485714 30.6923571,31.1485714 C20.3257987,31.1485714 11.936513,39.5412245 11.936513,49.8771429 Z M19.4501494,48.2155102 C20.5800195,48.2155102 20.6082662,48.2155102 20.7777468,47.0889796 C20.9189805,46.2159184 21.1732013,45.3991837 21.5121623,44.582449 C21.7098896,44.1318367 22.0206039,43.9628571 22.4725519,44.1036735 C23.1787208,44.3008163 23.8566429,44.4979592 24.5628117,44.7232653 C25.212487,44.9204082 25.2972273,45.1457143 25.0147597,45.7653061 C24.3933312,47.0326531 24.1391104,48.3281633 24.2238506,49.7363265 C24.2520974,50.102449 24.2803442,50.4685714 24.4498247,50.7783673 C24.986513,51.9893878 26.3141104,52.1583673 27.1332662,51.1444898 C27.5569675,50.637551 27.8394351,50.0461224 28.0936558,49.4265306 C28.5456039,48.3563265 28.9693052,47.2861224 29.5059935,46.3004082 C31.285539,43.0897959 35.3248247,42.2167347 38.0930065,44.4979592 C39.0816429,45.3146939 39.7595649,46.384898 40.098526,47.6240816 C40.2397597,48.1591837 40.5222273,48.4126531 41.0871623,48.3844898 C41.6520974,48.3563265 42.1887857,48.3844898 42.7537208,48.3844898 C43.2621623,48.3844898 43.5163831,48.6379592 43.5163831,49.1167347 C43.5446299,49.7081633 43.5446299,50.2995918 43.5163831,50.8910204 C43.5163831,51.4261224 43.2056688,51.6514286 42.6972273,51.6514286 L41.4826169,51.6514286 C40.5787208,51.6514286 40.550474,51.6795918 40.4092403,52.5526531 C40.2397597,53.6510204 39.985539,54.7212245 39.5053442,55.735102 C39.1098896,56.5236735 38.9121623,56.6081633 38.0930065,56.3828571 C37.4715779,56.2138776 36.8501494,56.044898 36.2569675,55.8477551 C35.5507987,55.622449 35.4660584,55.4253061 35.8050195,54.777551 C36.3982013,53.6791837 36.7089156,52.4963265 36.8783961,51.2571429 C36.9913831,50.4685714 36.9066429,49.68 36.5676818,48.9477551 C35.9745,47.5677551 34.3644351,47.342449 33.4040455,48.5253061 C33.0650844,48.9195918 32.8391104,49.3702041 32.6413831,49.8489796 C32.1046948,51.06 31.7092403,52.3273469 31.0313182,53.4538776 C29.9296948,55.3126531 28.4043701,56.4673469 26.1446299,56.3265306 C23.6024221,56.1857143 21.9923571,54.7212245 21.1449545,52.4118367 C20.8059935,51.4542857 20.8059935,51.4542857 19.7891104,51.4261224 L18.7722273,51.4261224 C18.0095649,51.3979592 17.8683312,51.2853061 17.8683312,50.524898 L17.8683312,49.8208163 C17.8400844,48.2436735 17.8400844,48.2436735 19.4501494,48.2155102 Z" id="Shape"></path>
            </g>
        </g>
    </g>
</svg>