<?xml version="1.0" encoding="UTF-8"?>
<svg width="504px" height="512px" viewBox="0 0 504 512" version="1.1" xmlns="http://www.w3.org/2000/svg" xmlns:xlink="http://www.w3.org/1999/xlink">
    <!-- Generator: Sketch 43.2 (39069) - http://www.bohemiancoding.com/sketch -->
    <title>growth</title>
    <desc>Created with Sketch.</desc>
    <defs></defs>
    <g id="Page-1" stroke="none" stroke-width="1" fill="none" fill-rule="evenodd" opacity="0.05">
        <g id="growth" fill-rule="nonzero">
            <rect id="Rectangle-path" fill="#B7E5FF" x="0.339" y="0" width="503.322" height="390.508"></rect>
            <g id="Group" transform="translate(234.000000, 216.000000)" fill="#FFA511">
                <rect id="Rectangle-path" x="0.644" y="53.017" width="34.712" height="86.78"></rect>
                <rect id="Rectangle-path" x="87.424" y="0.949" width="34.712" height="138.847"></rect>
            </g>
            <rect id="Rectangle-path" fill="#EF2648" x="408.203" y="121.492" width="34.712" height="234.305"></rect>
            <g id="Group" transform="translate(121.000000, 381.000000)" fill="#163768">
                <path d="M9.508,131 C4.718,131 0.83,127.112 0.83,122.322 C0.83,121.454 0.96,120.595 1.212,119.771 L35.924,6.957 C37.33,2.375 42.189,-0.194 46.771,1.212 C51.353,2.618 53.922,7.477 52.516,12.059 L17.804,124.873 C16.685,128.518 13.318,131 9.508,131 Z" id="Shape"></path>
                <path d="M252.492,131 C248.682,131 245.315,128.518 244.196,124.873 L209.484,12.06 C208.078,7.478 210.647,2.618 215.229,1.213 C219.811,-0.193 224.671,2.376 226.076,6.958 L260.788,119.772 C262.194,124.354 259.625,129.205 255.043,130.619 C254.218,130.87 253.359,131 252.492,131 Z" id="Shape"></path>
                <rect id="Rectangle-path" x="26.864" y="52.898" width="208.271" height="17.356"></rect>
            </g>
            <g id="Group" transform="translate(61.000000, 303.000000)" fill="#FFDC13">
                <rect id="Rectangle-path" x="0.085" y="18.085" width="34.712" height="34.712"></rect>
                <rect id="Rectangle-path" x="86.864" y="0.729" width="34.712" height="52.068"></rect>
            </g>
            <g id="Group" transform="translate(52.000000, 26.000000)" fill="#235087">
                <path d="M0.407,269.051 L0.407,251.695 C150.97,251.695 294.356,154.858 365.749,4.98 L381.421,12.443 C307.173,168.326 157.617,269.051 0.407,269.051 Z" id="Shape"></path>
                <path d="M390.915,69.458 C387.183,69.458 383.868,67.063 382.688,63.522 L368.491,20.948 L325.37,42.556 C321.083,44.699 315.868,42.955 313.724,38.668 C311.58,34.381 313.325,29.166 317.612,27.022 L369.68,0.988 C373.958,-1.173 379.174,0.545 381.334,4.824 C381.525,5.206 381.69,5.605 381.829,6.013 L399.185,58.081 C400.678,62.637 398.187,67.54 393.64,69.024 C392.755,69.319 391.844,69.458 390.915,69.458 Z" id="Shape"></path>
            </g>
            <path d="M442.915,355.797 L408.203,355.797 L408.203,293.029 C391.081,300.397 373.725,307.296 356.135,313.726 L356.135,355.797 L321.423,355.797 L321.423,325.58 C304.267,331.108 286.911,336.184 269.355,340.81 L269.355,355.797 L234.643,355.797 L234.643,349.228 C163.423,365.161 90.667,373.179 17.694,373.153 C11.888,373.153 6.118,373.032 0.338,372.936 L0.338,390.509 L503.66,390.509 L503.66,245.691 C483.822,256.903 463.576,267.447 442.914,277.314 L442.914,355.797 L442.915,355.797 Z" id="Shape" fill="#99C8E0"></path>
            <g id="Group" transform="translate(234.000000, 313.000000)" fill="#F08015">
                <path d="M35.356,42.797 L35.356,27.81 C23.866,30.821 12.299,33.624 0.644,36.228 L0.644,42.797 L35.356,42.797 Z" id="Shape"></path>
                <path d="M122.136,42.797 L122.136,0.726 C110.672,4.9 99.087,8.823 87.424,12.58 L87.424,42.797 L122.136,42.797 L122.136,42.797 Z" id="Shape"></path>
            </g>
            <path d="M442.915,355.797 L442.915,277.314 C431.469,282.772 419.892,288.014 408.203,293.03 L408.203,355.798 L442.915,355.798 L442.915,355.797 Z" id="Shape" fill="#B20D24"></path>
        </g>
    </g>
</svg>