<?xml version="1.0" encoding="UTF-8"?>
<svg width="189px" height="186px" viewBox="0 0 189 186" version="1.1" xmlns="http://www.w3.org/2000/svg" xmlns:xlink="http://www.w3.org/1999/xlink">
    <!-- Generator: Sketch 43.2 (39069) - http://www.bohemiancoding.com/sketch -->
    <title>handyman-tools copy</title>
    <desc>Created with Sketch.</desc>
    <defs></defs>
    <g id="Landing-Page" stroke="none" stroke-width="1" fill="none" fill-rule="evenodd">
        <g id="Landing-Mobile" transform="translate(-113.000000, -1135.000000)" fill-rule="nonzero">
            <g id="handyman-tools-copy" transform="translate(113.000000, 1135.000000)">
                <path d="M37.6321469,72.3216809 C41.4167727,72.3216809 45.1346538,71.7300426 48.7164021,70.5902979 L70.0046748,91.8233191 L93.3184196,68.5588085 L72.0400594,47.3027021 C76.1418881,34.5095957 72.7716084,20.3340213 63.2119091,10.7959149 C56.4065874,4.0016383 47.3471434,0.261191489 37.7279685,0.261191489 C32.3533636,0.261191489 26.9642203,1.47678723 22.1288601,3.77804255 C21.3992937,4.12497872 20.888465,4.80170213 20.7516713,5.59517021 C20.6188427,6.3886383 20.8745874,7.19397872 21.4422483,7.76582979 L43.8407308,30.1267234 C45.4934895,31.775 46.4054476,33.9634681 46.4054476,36.2864894 C46.4054476,38.6154468 45.4921678,40.7999574 43.8407308,42.448234 C40.5504126,45.7421489 34.7978077,45.7421489 31.501542,42.4396596 L9.09512937,20.0847021 C8.52086014,19.5115319 7.69547203,19.260234 6.92295105,19.3934681 C6.12597902,19.53 5.44994056,20.0398511 5.10233916,20.7680213 C-1.4782972,34.5320213 1.34216434,51.0147872 12.1343287,61.778383 C18.9436154,68.5746383 27.9984336,72.3216809 37.6321469,72.3216809 Z" id="Shape" fill="#F5A623"></path>
                <path d="M151.38107,113.67634 C147.588514,113.67634 143.864685,114.271936 140.280294,115.414319 L116.733934,91.9110426 L93.4043287,115.192043 L116.957297,138.699277 C112.864059,151.488426 116.231696,165.660043 125.785448,175.204085 C132.592752,181.998362 141.652196,185.739468 151.27071,185.739468 C156.647958,185.739468 162.036441,184.521234 166.871801,182.220638 C167.601367,181.874362 168.112196,181.196979 168.24899,180.403511 C168.385783,179.610043 168.126073,178.804043 167.558413,178.232851 L145.160591,155.86734 C143.511136,154.223021 142.599839,152.038511 142.597857,149.715489 C142.597857,147.388511 143.509154,145.204 145.164556,143.553745 C148.465448,140.257191 154.205497,140.25917 157.49978,143.555723 L179.901566,165.910681 C180.473853,166.479894 181.272808,166.73317 182.076388,166.601915 C182.871378,166.463404 183.550059,165.955532 183.897,165.227362 C190.477636,151.46534 187.659157,134.984553 176.866993,124.218979 C170.059689,117.423383 161.006853,113.67634 151.38107,113.67634 Z" id="Shape" fill="#F5A623"></path>
                <path d="M141.79692,60.6729362 C141.79692,60.6729362 145.693888,64.0796383 148.906888,62.4880851 C152.538199,60.6643617 162.76865,70.7307872 166.032535,73.0861277 C166.043108,73.0940426 166.065577,73.0940426 166.103906,73.1125106 L164.31964,74.9012766 C161.963087,77.2262766 161.96507,81.0227872 164.313692,83.3517447 C166.663636,85.6872979 170.442315,85.6853191 172.79292,83.3517447 L186.920339,69.2698298 C189.254423,66.9283404 189.256406,63.1384255 186.916374,60.8008936 C184.584934,58.4712766 180.781804,58.4712766 178.441773,60.8028723 L176.089185,63.1489787 C174.13971,60.4691277 170.900276,55.9015745 171.311318,54.3885106 C173.034126,47.761766 159.498818,32.1087447 159.498818,32.1087447 C125.883252,-1.43589362 103.42992,-0.673425532 92.7481154,2.99248936 C88.4605909,4.46465957 89.2555804,5.39729787 93.7089755,6.18021277 C126.116528,11.8261702 130.136413,30.9010638 124.642857,38.2605957 C122.530154,41.1020426 125.611647,44.5324894 125.611647,44.5324894 L126.770098,45.6808085 L72.0506329,100.28566 C72.7927552,100.732191 73.5137308,101.240064 74.149458,101.876553 L83.3542867,111.055191 C83.9794406,111.681128 84.4902692,112.395447 84.9336923,113.135489 L139.653818,58.5286596 L141.79692,60.6729362 Z" id="Shape" fill="#21CD98"></path>
                <path d="M70.4666014,105.548404 C68.4470769,103.530766 65.0100524,103.40083 62.8497692,105.273362 L2.04001049,159.686277 C-0.130185315,161.55683 -0.251118881,164.740596 1.77237063,166.760213 L18.3356434,183.279915 C20.3604545,185.299532 23.5443776,185.186745 25.416535,183.032574 L79.9503042,122.321383 C81.8158531,120.167213 81.6975629,116.748638 79.6720909,114.73166 L70.4666014,105.548404 Z" id="Shape" fill="#21CD98"></path>
            </g>
        </g>
    </g>
</svg>