<?xml version="1.0" encoding="UTF-8"?>
<svg width="166px" height="191px" viewBox="0 0 166 191" version="1.1" xmlns="http://www.w3.org/2000/svg" xmlns:xlink="http://www.w3.org/1999/xlink">
    <!-- Generator: Sketch 43.2 (39069) - http://www.bohemiancoding.com/sketch -->
    <title>money-bag copy</title>
    <desc>Created with Sketch.</desc>
    <defs></defs>
    <g id="Landing-Page" stroke="none" stroke-width="1" fill="none" fill-rule="evenodd">
        <g id="Landing-Mobile" transform="translate(-125.000000, -656.000000)" fill-rule="nonzero">
            <g id="money-bag-copy" transform="translate(125.000000, 656.000000)">
                <path d="M165.631111,155.262289 C165.631111,192.695221 128.742222,190.54743 82.9385185,190.54743 C37.1348148,190.54743 0.245925926,192.388394 0.245925926,155.262289 C0.245925926,117.829357 37.1348148,55.5434137 82.9385185,55.5434137 C128.742222,55.850241 165.631111,118.136185 165.631111,155.262289 Z" id="Shape" fill="#F5A623"></path>
                <path d="M82.9385185,55.850241 C128.742222,55.850241 165.631111,118.136185 165.631111,155.569116 C165.631111,193.002048 128.742222,190.854257 82.9385185,190.854257" id="Shape" fill="#DD981D"></path>
                <path d="M42.6681481,17.19 C42.6681481,-0.912811245 60.8051852,0.00767068273 82.9385185,0.00767068273 C105.071852,0.00767068273 123.208889,-0.912811245 123.208889,17.19 C123.208889,35.2928112 105.071852,65.6687149 82.9385185,65.6687149 C60.8051852,65.6687149 42.6681481,35.2928112 42.6681481,17.19 Z" id="Shape" fill="#F2B233"></path>
                <path d="M82.9385185,0.00767068273 C105.071852,0.00767068273 123.208889,-0.912811245 123.208889,17.19 C123.208889,35.2928112 105.071852,65.6687149 82.9385185,65.6687149" id="Shape" fill="#DD981D"></path>
                <path d="M118.29037,59.2253414 C118.29037,62.2936145 115.831111,64.7482329 112.757037,64.7482329 L53.12,64.7482329 C50.0459259,64.7482329 47.5866667,62.2936145 47.5866667,59.2253414 L47.5866667,57.6912048 C47.5866667,54.6229317 50.0459259,52.1683133 53.12,52.1683133 L113.064444,52.1683133 C116.138519,52.1683133 118.597778,54.6229317 118.597778,57.6912048 L118.597778,59.2253414 L118.29037,59.2253414 Z" id="Shape" fill="#04AF76"></path>
                <path d="M52.1977778,52.4751406 L113.064444,52.4751406 C116.138519,52.4751406 118.597778,54.929759 118.597778,57.9980321 L118.597778,59.5321687 C118.597778,62.6004418 115.523704,65.0550602 112.44963,65.0550602" id="Shape" fill="#008C61"></path>
                <ellipse id="Oval" fill="#04AF76" cx="82.9385185" cy="130.10245" rx="36.8888889" ry="36.8192771"></ellipse>
                <path d="M56.8088889,104.022129 C71.257037,89.601245 94.62,89.601245 109.068148,104.022129 C123.516296,118.443012 123.516296,141.761888 109.068148,156.182771" id="Shape" fill="#008C61"></path>
                <path d="M79.8644444,159.864699 L79.8644444,152.194016 C73.7162963,151.887189 70.3348148,150.65988 67.5681481,149.125743 L69.4125926,140.841406 C72.4866667,142.375542 76.482963,143.909679 81.0940741,143.909679 C85.0903704,143.909679 87.857037,142.375542 87.857037,139.614096 C87.857037,136.852651 85.7051852,135.318514 80.1718519,133.47755 C72.4866667,131.022932 67.5681481,127.341004 67.5681481,120.590803 C67.5681481,114.454257 70.3348148,109.54502 79.557037,108.010884 L79.557037,101.56751 L85.7051852,101.56751 L85.7051852,107.704056 C91.8533333,108.010884 94.0051852,108.931365 96.157037,110.158675 L94.3125926,118.136185 C92.4681481,117.215703 89.3940741,115.681566 84.1681481,115.681566 C79.557037,115.681566 78.02,117.52253 78.02,119.670321 C78.02,122.12494 80.4792593,123.352249 86.6274074,125.806867 C94.9274074,128.875141 98.3088889,132.557068 98.3088889,139.000442 C98.3088889,145.443815 94.9274074,150.65988 85.7051852,152.194016 L85.7051852,159.864699 L79.8644444,159.864699 L79.8644444,159.864699 Z" id="Shape" fill="#FFF6E1"></path>
                <g id="Group" transform="translate(82.615741, 101.253012)" fill="#FFEEBD">
                    <path d="M0.322777778,0.314497992 L0.322777778,14.4285542 L1.85981481,14.4285542 C7.08574074,14.4285542 10.1598148,15.9626908 12.0042593,16.8831727 L13.8487037,8.90566265 C11.3894444,7.67835341 9.545,6.45104418 3.39685185,6.45104418 L3.39685185,0.314497992 L0.322777778,0.314497992 Z" id="Shape"></path>
                    <path d="M4.31907407,24.2470281 C2.78203704,23.6333735 1.245,23.0197189 0.322777778,22.7128916 L0.322777778,33.1450201 C3.39685185,34.6791566 5.2412963,36.2132932 5.2412963,38.3610843 C5.2412963,40.8157028 3.39685185,42.043012 0.322777778,42.6566667 L0.322777778,58.6116867 L3.39685185,58.6116867 L3.39685185,50.6341767 C12.6190741,49.1000402 16.0005556,43.8839759 16.0005556,37.4406024 C16.0005556,30.9972289 12.6190741,27.3153012 4.31907407,24.2470281 Z" id="Shape"></path>
                </g>
            </g>
        </g>
    </g>
</svg>