<?xml version="1.0" encoding="UTF-8"?>
<svg width="44px" height="54px" viewBox="0 0 44 54" version="1.1" xmlns="http://www.w3.org/2000/svg" xmlns:xlink="http://www.w3.org/1999/xlink">
    <!-- Generator: Sketch 43.2 (39069) - http://www.bohemiancoding.com/sketch -->
    <title>padlock</title>
    <desc>Created with Sketch.</desc>
    <defs></defs>
    <g id="Landing-Page" stroke="none" stroke-width="1" fill="none" fill-rule="evenodd">
        <g id="Landing" transform="translate(-49.000000, -2349.000000)" fill-rule="nonzero" fill="#FFFFFF">
            <g id="padlock" transform="translate(49.000000, 2349.000000)">
                <path d="M42.86,25.6192388 C42.1492,24.9032687 41.2866667,24.5455522 40.2710667,24.5455522 L39.0536,24.5455522 L39.0536,17.1815373 C39.0536,12.4770896 37.3790667,8.43770149 34.0289333,5.06270149 C30.6790667,1.68756716 26.67,0 21.9997333,0 C17.3296,0 13.3197333,1.68756716 9.97013333,5.06256716 C6.62,8.43770149 4.94546667,12.4769552 4.94546667,17.1815373 L4.94546667,24.5455522 L3.72746667,24.5455522 C2.71266667,24.5455522 1.8496,24.9032687 1.13893333,25.6192388 C0.428266667,26.3346716 0.0730666667,27.2041791 0.0730666667,28.2274925 L0.0730666667,50.3180597 C0.0730666667,51.3404328 0.4284,52.210209 1.13893333,52.9263134 C1.8496,53.6416119 2.71266667,53.9997313 3.72746667,53.9997313 L40.272,53.9997313 C41.2876,53.9997313 42.15,53.6420149 42.8609333,52.9263134 C43.5709333,52.210209 43.9268,51.3404328 43.9268,50.3180597 L43.9268,28.2270896 C43.9273333,27.2045821 43.5709333,26.335209 42.86,25.6192388 Z M31.7449333,24.5455522 L12.2545333,24.5455522 L12.2545333,17.1815373 C12.2545333,14.4714627 13.2064,12.1573881 15.1097333,10.2401194 C17.0133333,8.32258209 19.3098667,7.36401493 22.0001333,7.36401493 C24.6906667,7.36401493 26.9866667,8.32244776 28.8904,10.2401194 C30.7932,12.1572537 31.7449333,14.4714627 31.7449333,17.1815373 L31.7449333,24.5455522 Z" id="Shape"></path>
            </g>
        </g>
    </g>
</svg>