<?xml version="1.0" encoding="UTF-8"?>
<svg width="133px" height="117px" viewBox="0 0 133 117" version="1.1" xmlns="http://www.w3.org/2000/svg" xmlns:xlink="http://www.w3.org/1999/xlink">
    <!-- Generator: Sketch 43.2 (39069) - http://www.bohemiancoding.com/sketch -->
    <title>give-money</title>
    <desc>Created with Sketch.</desc>
    <defs></defs>
    <g id="Wait-List-Page" stroke="none" stroke-width="1" fill="none" fill-rule="evenodd" opacity="0.05">
        <g id="Desktop-Portrait" transform="translate(-675.000000, -145.000000)" fill-rule="nonzero" fill="#000000">
            <g id="give-money" transform="translate(675.000000, 145.000000)">
                <g id="Group" transform="translate(62.566197, 0.000000)">
                    <path d="M36.8810873,32.7645145 C32.9090704,31.1656399 31.7615239,30.198791 31.7615239,28.4528199 C31.7615239,27.0555916 32.8154085,25.4232347 35.7867408,25.4232347 C38.4148958,25.4232347 40.4305014,26.4638199 40.4484845,26.4728489 C40.6605352,26.586463 40.8984366,26.6470322 41.1340901,26.6470322 C41.7091746,26.6470322 42.2179465,26.297537 42.4288732,25.7565531 L43.1508197,23.9033633 C43.4022085,23.228074 43.0208169,22.6396881 42.5345239,22.4286367 C40.9164197,21.7213698 37.7540169,21.1739904 37.7217972,21.1683473 C37.6708451,21.1593183 37.4936366,21.1213215 37.4936366,20.9132797 L37.4835211,18.2249132 C37.4835211,17.4153183 36.8102789,16.7562058 35.9838056,16.7562058 L34.6886479,16.7562058 C33.8629239,16.7562058 33.1900563,17.4149421 33.1900563,18.2252894 L33.1934282,21.0517235 C33.1934282,21.268418 32.9596479,21.3624695 32.8742282,21.3824084 C28.8823549,22.3372186 26.3875746,25.2735048 26.3875746,28.9772508 C26.3875746,33.5944244 30.1883775,35.6808617 34.2922704,37.2470064 C37.573062,38.5404019 38.9113042,39.8518553 38.9113042,41.7753955 C38.9113042,43.8686045 37.0159606,45.3305402 34.3005127,45.3305402 C31.9818169,45.3305402 28.8437662,43.8546849 28.8126704,43.8396367 C28.6118592,43.7440804 28.3990592,43.695926 28.1802648,43.695926 C27.5830761,43.695926 27.0630648,44.0585884 26.8551352,44.6202637 L26.1657831,46.4945209 C25.9207634,47.1942637 26.2980338,47.7623344 26.7809549,48.0151447 C28.7081437,49.023 32.4373887,49.6136431 32.6033577,49.6396013 C32.6479408,49.6459968 32.8749775,49.7261286 32.8749775,49.9345466 L32.8749775,52.7485659 C32.8749775,53.5581608 33.5482197,54.2172733 34.3750676,54.2172733 L35.7133099,54.2172733 C36.5405324,54.2172733 37.2137746,53.558537 37.2137746,52.7485659 L37.2137746,49.787074 C37.2137746,49.5101865 37.4172085,49.4857331 37.459169,49.4755756 C41.7117972,48.5162508 44.3313352,45.3918617 44.3313352,41.4687878 C44.3302113,37.4392476 42.1018056,34.8355273 36.8810873,32.7645145 Z" id="Shape"></path>
                    <path d="M35.2090338,0.191488746 C15.7962789,0.191488746 0.0603183099,15.9940129 0.0603183099,35.4863633 C0.0603183099,54.97909 15.7962789,70.7819904 35.2090338,70.7819904 C54.6210394,70.7819904 70.3573746,54.97909 70.3573746,35.4863633 C70.3573746,15.9940129 54.6210394,0.191488746 35.2090338,0.191488746 Z M35.2090338,62.6021479 C20.2950507,62.6021479 8.20591268,50.4616109 8.20591268,35.4867395 C8.20591268,20.5118682 20.2950507,8.3717074 35.2090338,8.3717074 C50.1222676,8.3717074 62.211031,20.5118682 62.211031,35.4867395 C62.211031,50.4616109 50.1222676,62.6021479 35.2090338,62.6021479 Z" id="Shape"></path>
                </g>
                <g id="Group" transform="translate(0.000000, 74.112540)">
                    <path d="M125.781659,13.7728939 C118.307434,17.9152958 108.02747,21.7454469 97.7756056,23.3601222 C88.6544282,24.7964759 71.4948056,21.332373 71.4948056,17.241135 C71.4948056,15.690791 86.5444113,21.0611286 95.6479803,18.6221865 C102.628794,16.7520675 101.637851,10.1948006 97.8407944,9.32990354 C94.0658423,8.4695209 71.9496282,0.333694534 62.5028817,0.0530450161 C58.0528141,-0.0790032154 47.0662648,1.60715113 41.7500113,2.4765627 C39.9288479,2.77414148 38.7869211,2.74141158 38.6730282,4.4915209 C38.1440254,12.62509 37.1013803,29.2579003 36.5330394,37.9459968 C36.5210507,38.1295852 36.775062,40.5982476 38.8037803,38.8609293 C41.0243183,36.9595852 44.1387662,34.8520804 47.0194338,35.5081833 C51.5388113,36.5378585 90.6374394,43.730537 96.0304958,42.4717524 C103.74562,40.6708553 125.585718,27.674074 129.773158,23.6343762 C136.263558,17.3716785 131.218175,10.7598617 125.781659,13.7728939 Z" id="Shape"></path>
                    <path d="M27.8835437,2.15942122 L7.40079437,1.14592283 C5.81940563,1.06767203 4.20429859,2.26438264 3.81129296,3.80419293 L0.0869183099,37.7586463 C-0.305712676,39.2988328 0.667622535,40.6095338 2.24976056,40.6708553 L24.9496761,40.6685981 C26.5321887,40.7299196 27.9251296,39.4831736 28.0465155,37.8978424 L30.5394225,5.18373955 C30.6600592,3.59878457 29.4649324,2.23767203 27.8835437,2.15942122 Z M15.8251268,36.1703055 C12.6971915,36.1703055 10.1619493,33.6241447 10.1619493,30.4835788 C10.1619493,27.3426367 12.6975662,24.7968521 15.8251268,24.7968521 C18.9526873,24.7968521 21.4883042,27.3430129 21.4883042,30.4835788 C21.4883042,33.6245209 18.953062,36.1703055 15.8251268,36.1703055 Z" id="Shape"></path>
                </g>
            </g>
        </g>
    </g>
</svg>